<?xml version="1.0" standalone="no"?>
<!DOCTYPE svg PUBLIC "-//W3C//DTD SVG 20010904//EN"
 "http://www.w3.org/TR/2001/REC-SVG-20010904/DTD/svg10.dtd">
<svg version="1.0" xmlns="http://www.w3.org/2000/svg"
 width="69.000000pt" height="68.000000pt" viewBox="0 0 69.000000 68.000000"
 preserveAspectRatio="xMidYMid meet">

<g transform="translate(0.000000,68.000000) scale(0.100000,-0.100000)"
fill="#000000" stroke="none">
<path d="M240 665 c-80 -22 -159 -80 -197 -144 -104 -174 -4 -374 214 -429 41
-10 92 -32 115 -49 58 -40 69 -43 106 -28 21 10 33 23 37 42 12 57 21 72 64
105 24 18 58 58 75 88 27 48 31 65 31 130 0 65 -4 82 -31 130 -35 62 -106 122
-174 146 -66 23 -175 27 -240 9z m232 -87 c62 -26 120 -90 137 -151 11 -39 11
-55 0 -94 -15 -54 -73 -124 -119 -143 -25 -11 -31 -19 -36 -61 l-7 -49 -46 34
c-27 20 -65 37 -91 41 -133 21 -240 122 -240 225 0 39 25 95 57 131 84 93 221
119 345 67z"/>
<path d="M317 484 c-4 -4 -7 -22 -7 -40 0 -31 -2 -33 -37 -36 -31 -2 -39 -7
-41 -27 -4 -27 12 -41 50 -41 23 0 27 -5 30 -32 3 -29 6 -33 33 -33 27 0 30 4
33 33 3 27 7 32 30 32 38 0 54 14 50 41 -2 20 -10 25 -40 27 -35 3 -37 5 -40
40 -3 31 -7 37 -28 40 -14 2 -29 0 -33 -4z"/>
</g>
</svg>
