<!--?xml version="1.0" encoding="utf-8"?-->
<!-- Generator: Adobe Illustrator 18.1.1, SVG Export Plug-In . SVG Version: 6.00 Build 0)  -->

<svg version="1.1" id="_x31_0" xmlns="http://www.w3.org/2000/svg" xmlns:xlink="http://www.w3.org/1999/xlink" x="0px" y="0px" viewBox="0 0 512 512"
 style="width: 26px; height: 26px; opacity: 1;" xml:space="preserve">
<style type="text/css">
	.comment{fill:#fff;}
</style>
<g>
	<path class="comment" d="M343.809,173.926H168.187c-6.906,0-12.504,5.602-12.504,12.508c0,6.906,5.598,12.504,12.504,12.504h175.622
		c6.906,0,12.504-5.598,12.504-12.504C356.313,179.527,350.715,173.926,343.809,173.926z" ></path>
	<path class="comment" d="M343.809,235.07H168.187c-6.906,0-12.504,5.602-12.504,12.507c0,6.906,5.598,12.504,12.504,12.504h175.622
		c6.906,0,12.504-5.598,12.504-12.504C356.313,240.672,350.715,235.07,343.809,235.07z" ></path>
	<path class="comment" d="M268.566,296.214H168.187c-6.906,0-12.504,5.602-12.504,12.508c0,6.91,5.598,12.508,12.504,12.508h100.379
		c6.906,0,12.508-5.598,12.508-12.508C281.074,301.816,275.473,296.214,268.566,296.214z" ></path>
	<path class="comment" d="M433.394,67.676C385.558,27.774,322.554,5.793,256,5.793c-66.558,0-129.558,21.981-177.398,61.883
		C27.914,109.965,0,167.035,0,228.382c0,61.344,27.914,118.418,78.602,160.699c44.289,36.946,101.57,58.524,162.641,61.524
		l56.422,44.062c9.734,7.602,21.57,11.539,33.531,11.539c6.887,0,13.817-1.305,20.41-3.973c18.039-7.293,30.82-23.657,33.523-42.926
		l5.848-41.672C465.438,377.492,512,306.042,512,228.382C512,167.035,484.082,109.965,433.394,67.676z M448.672,277.714
		c-1.254,3.406-2.618,6.774-4.118,10.082c-0.671,1.473-1.449,2.906-2.168,4.359c-1.058,2.153-2.09,4.317-3.254,6.422
		c-0.973,1.762-2.066,3.473-3.114,5.207c-1.078,1.786-2.109,3.594-3.262,5.344c-1.031,1.566-2.172,3.078-3.262,4.617
		c-1.34,1.891-2.641,3.801-4.066,5.641c-0.828,1.078-1.742,2.102-2.602,3.164c-1.847,2.27-3.687,4.547-5.66,6.734
		c-0.363,0.402-0.758,0.782-1.121,1.18c-19.657,21.394-45.305,38.766-74.898,50.293l-6.637,47.309l-3.395,23.617l-70.781-55.277
		c-1.45,0.027-2.883,0.094-4.336,0.094c-111.305,0-201.535-75.27-201.535-168.118c0-92.847,90.23-168.121,201.535-168.121
		c111.301,0,201.531,75.274,201.531,168.121c0,16.84-2.973,33.098-8.5,48.434C448.922,277.117,448.785,277.414,448.672,277.714z" ></path>
</g>
</svg>
