<?xml version="1.0" standalone="no"?>
<!DOCTYPE svg PUBLIC "-//W3C//DTD SVG 20010904//EN"
 "http://www.w3.org/TR/2001/REC-SVG-20010904/DTD/svg10.dtd">
<svg version="1.0" xmlns="http://www.w3.org/2000/svg"
 width="66.000000pt" height="66.000000pt" viewBox="0 0 66.000000 66.000000"
 preserveAspectRatio="xMidYMid meet">

<g transform="translate(0.000000,66.000000) scale(0.100000,-0.100000)"
fill="#000000" stroke="none">
<path d="M247 649 c-60 -14 -110 -44 -156 -94 -66 -72 -86 -124 -86 -225 1
-77 4 -91 35 -148 34 -63 84 -113 150 -148 28 -15 56 -19 135 -19 89 0 105 3
150 27 183 97 234 336 106 497 -75 95 -210 139 -334 110z m200 -105 c171 -98
163 -344 -13 -430 -47 -23 -63 -26 -122 -22 -200 14 -298 233 -177 391 71 93
209 120 312 61z"/>
<path d="M198 489 c-16 -9 -18 -28 -18 -158 0 -119 3 -151 15 -161 10 -8 45
-11 110 -8 92 3 96 4 127 36 l33 32 3 119 c5 154 7 151 -141 151 -62 0 -120
-5 -129 -11z m242 -124 l0 -105 -35 0 c-33 0 -35 -2 -35 -35 0 -41 -16 -48
-101 -43 l-54 3 -3 143 -3 142 116 0 115 0 0 -105z"/>
<path d="M230 420 c0 -5 9 -10 20 -10 11 0 20 5 20 10 0 6 -9 10 -20 10 -11 0
-20 -4 -20 -10z"/>
<path d="M370 380 c-21 -29 -22 -29 -51 -14 -28 14 -31 14 -59 -8 -16 -13 -29
-26 -29 -30 -1 -14 16 -8 34 12 21 24 42 25 64 6 14 -13 20 -10 49 25 18 21
29 39 23 39 -5 0 -19 -13 -31 -30z"/>
<path d="M390 339 c0 -5 9 -9 20 -9 11 0 20 2 20 4 0 2 -9 6 -20 9 -11 3 -20
1 -20 -4z"/>
<path d="M288 283 c6 -2 18 -2 25 0 6 3 1 5 -13 5 -14 0 -19 -2 -12 -5z"/>
</g>
</svg>
