<?xml version="1.0" standalone="no"?>
<!DOCTYPE svg PUBLIC "-//W3C//DTD SVG 20010904//EN"
 "http://www.w3.org/TR/2001/REC-SVG-20010904/DTD/svg10.dtd">
<svg version="1.0" xmlns="http://www.w3.org/2000/svg"
 width="70.000000pt" height="69.000000pt" viewBox="0 0 70.000000 69.000000"
 preserveAspectRatio="xMidYMid meet">

<g transform="translate(0.000000,69.000000) scale(0.100000,-0.100000)"
fill="#000000" stroke="none">
<path d="M257 680 c-239 -61 -334 -309 -181 -479 50 -56 121 -95 204 -112 33
-7 72 -25 99 -45 73 -56 137 -38 148 43 4 34 12 46 49 72 48 34 99 105 114
161 35 126 -37 263 -175 331 -50 25 -79 32 -141 35 -44 2 -96 -1 -117 -6z
m234 -103 c81 -42 120 -94 127 -171 7 -92 -28 -154 -120 -213 -32 -19 -38 -29
-38 -58 0 -18 -5 -37 -10 -40 -6 -3 -29 9 -53 28 -32 26 -55 36 -95 40 -104
12 -198 87 -223 179 -26 97 46 213 156 252 22 8 74 15 117 15 67 1 84 -3 139
-32z"/>
<path d="M265 460 c-18 -20 -18 -21 3 -43 27 -29 27 -35 0 -64 l-22 -23 22
-22 22 -22 23 22 c29 27 35 27 63 1 42 -39 84 3 45 45 -26 28 -26 34 0 62 43
46 -5 83 -50 40 l-27 -26 -24 25 c-28 30 -32 31 -55 5z"/>
</g>
</svg>
