<?xml version="1.0" standalone="no"?>
<!DOCTYPE svg PUBLIC "-//W3C//DTD SVG 20010904//EN"
 "http://www.w3.org/TR/2001/REC-SVG-20010904/DTD/svg10.dtd">
<svg version="1.0" xmlns="http://www.w3.org/2000/svg"
 width="66.000000pt" height="66.000000pt" viewBox="0 0 66.000000 66.000000"
 preserveAspectRatio="xMidYMid meet">

<g transform="translate(0.000000,66.000000) scale(0.100000,-0.100000)"
fill="#000000" stroke="none">
<path d="M247 649 c-60 -14 -110 -44 -156 -94 -66 -72 -86 -124 -86 -225 1
-77 4 -91 35 -148 34 -63 84 -113 150 -148 28 -15 56 -19 135 -19 89 0 105 3
150 27 183 97 234 336 106 497 -75 95 -210 139 -334 110z m200 -105 c171 -98
163 -344 -13 -430 -47 -23 -63 -26 -122 -22 -200 14 -298 233 -177 391 71 93
209 120 312 61z"/>
<path d="M170 441 c0 -28 18 -31 159 -31 91 0 132 4 146 13 39 29 7 37 -151
37 -144 0 -154 -1 -154 -19z"/>
<path d="M177 353 c-4 -3 -7 -15 -7 -25 0 -17 11 -18 155 -18 133 0 157 2 162
16 3 9 0 20 -8 25 -16 10 -292 12 -302 2z"/>
<path d="M173 235 c-11 -31 13 -36 163 -33 141 3 149 4 149 23 0 19 -8 20
-153 23 -132 2 -153 0 -159 -13z"/>
</g>
</svg>
