<!--?xml version="1.0" encoding="utf-8"?-->
<!-- Generator: Adobe Illustrator 18.1.1, SVG Export Plug-In . SVG Version: 6.00 Build 0)  -->

<svg version="1.1" id="_x31_0" xmlns="http://www.w3.org/2000/svg" xmlns:xlink="http://www.w3.org/1999/xlink" x="0px" y="0px" viewBox="0 0 512 512"
 style="width: 32px; height: 32px; opacity: 1;" xml:space="preserve">
<style type="text/css">
	.remove{fill:#ffff;}
</style>
<g>
	<path class="remove" d="M433.394,67.676C385.558,27.774,322.558,5.793,256,5.793c-66.558,0-129.558,21.981-177.394,61.883
		C27.914,109.965,0,167.035,0,228.382c0,61.344,27.914,118.418,78.606,160.703c44.285,36.942,101.57,58.52,162.637,61.52
		l56.426,44.062c9.734,7.602,21.566,11.539,33.531,11.539c6.883,0,13.817-1.305,20.406-3.973
		c18.043-7.293,30.82-23.657,33.523-42.926l5.848-41.672C465.438,377.496,512,306.042,512,228.382
		C512,167.035,484.086,109.965,433.394,67.676z M448.722,277.59c-1.266,3.453-2.648,6.859-4.168,10.215
		c-0.664,1.453-1.43,2.867-2.14,4.301c-1.066,2.171-2.11,4.355-3.282,6.476c-0.965,1.75-2.05,3.446-3.086,5.164
		c-1.09,1.801-2.13,3.626-3.29,5.387c-1.019,1.55-2.148,3.043-3.222,4.562c-1.355,1.91-2.672,3.84-4.11,5.703
		c-0.816,1.054-1.714,2.062-2.558,3.106c-1.859,2.289-3.715,4.582-5.703,6.789c-0.351,0.39-0.738,0.758-1.09,1.145
		c-19.66,21.41-45.321,38.789-74.926,50.324l-6.63,47.258l-3.402,23.664l-70.781-55.277c-1.45,0.027-2.883,0.094-4.336,0.094
		c-111.301,0-201.531-75.27-201.531-168.118c0-92.847,90.23-168.121,201.531-168.121s201.531,75.274,201.531,168.121
		c0,16.844-2.973,33.106-8.5,48.446C448.938,277.086,448.82,277.332,448.722,277.59z"  ></path>
	<path class="remove" d="M322.594,193.297c3.348-3.336,3.774-8.465,1.254-12.149c-0.348-0.538-0.754-1.046-1.227-1.519l-9.242-9.215
		l-9.215-9.242c-0.473-0.473-0.981-0.879-1.519-1.227c-3.684-2.519-8.813-2.094-12.149,1.254l-29.914,30.004
		c-1.871,1.874-4.305,2.836-6.731,2.874c-2.41,0.004-4.804-0.898-6.621-2.718l-29.234-29.32c-3.25-3.258-8.34-3.582-12.078-1.012
		c-0.562,0.367-1.094,0.797-1.586,1.289l-9.434,9.461l-9.461,9.434c-0.492,0.493-0.918,1.024-1.286,1.582
		c-2.57,3.742-2.25,8.832,1.008,12.078l29.321,29.238c1.82,1.816,2.722,4.21,2.718,6.621c-0.039,2.426-1,4.859-2.875,6.726
		l-27.277,27.199c-3.336,3.328-3.77,8.442-1.27,12.125c0.351,0.543,0.762,1.059,1.238,1.531l9.246,9.219l9.219,9.246
		c0.472,0.477,0.988,0.887,1.531,1.238c3.683,2.5,8.797,2.066,12.125-1.27l27.199-27.277c1.867-1.875,4.301-2.836,6.726-2.875
		c2.41-0.004,4.805,0.898,6.621,2.718l29.238,29.321c3.246,3.258,8.34,3.578,12.078,1.008c0.558-0.367,1.09-0.794,1.582-1.286
		l9.434-9.461l9.461-9.434c0.496-0.492,0.922-1.023,1.285-1.582c2.574-3.742,2.25-8.832-1.008-12.078l-29.32-29.238
		c-1.82-1.817-2.722-4.211-2.718-6.621c0.038-2.426,1-4.86,2.874-6.731L322.594,193.297z"  ></path>
</g>
</svg>
