<?xml version="1.0" standalone="no"?>
<!DOCTYPE svg PUBLIC "-//W3C//DTD SVG 20010904//EN"
 "http://www.w3.org/TR/2001/REC-SVG-20010904/DTD/svg10.dtd">
<svg version="1.0" xmlns="http://www.w3.org/2000/svg"
 width="65.000000pt" height="64.000000pt" viewBox="0 0 65.000000 64.000000"
 preserveAspectRatio="xMidYMid meet">

<g transform="translate(0.000000,64.000000) scale(0.100000,-0.100000)"
fill="#000000" stroke="none">
<path d="M229 627 c-147 -42 -240 -161 -226 -292 13 -125 116 -228 254 -253
33 -6 66 -21 93 -42 51 -40 94 -44 122 -11 10 13 18 34 18 47 0 17 18 41 56
77 67 62 94 111 101 182 16 156 -117 290 -298 301 -44 2 -93 -1 -120 -9z m187
-72 c124 -37 195 -163 150 -268 -15 -37 -68 -92 -108 -113 -20 -10 -28 -22
-28 -42 0 -50 -12 -55 -56 -23 -21 16 -59 32 -84 36 -64 10 -120 37 -159 76
-168 168 37 408 285 334z"/>
<path d="M205 419 c-15 -23 15 -30 126 -27 93 2 114 6 114 18 0 12 -21 16
-117 18 -78 2 -119 -1 -123 -9z"/>
<path d="M200 335 c0 -13 21 -15 125 -15 104 0 125 2 125 15 0 13 -21 15 -125
15 -104 0 -125 -2 -125 -15z"/>
<path d="M200 255 c0 -13 12 -15 78 -13 43 2 77 7 77 13 0 6 -34 11 -77 13
-66 2 -78 0 -78 -13z"/>
</g>
</svg>
